# This file uses centimeters as units for non-parametric coordinates.

mtllib arch.mtl
g default
v -1.093946 1.082759 0.229759
v -1.094310 1.310753 0.229759
v -0.955067 1.310754 0.229759
v -0.955067 1.310754 0.229759
v -0.954752 1.083937 0.229759
v -1.093946 1.082759 0.405052
v -0.955067 1.310754 0.405052
v -0.954752 1.082665 0.405052
v -1.094310 1.310753 0.405052
v -0.955067 1.310754 0.405052
v -1.093946 1.822927 0.229759
v -1.093946 1.822927 0.405052
v -0.954466 1.821688 0.229759
v -0.968438 2.369900 0.229759
v -0.968438 2.369900 0.405052
v -0.954466 1.821688 0.405052
v 1.093946 1.075134 0.229759
v 1.093946 1.075134 0.405052
v 0.954752 1.075850 0.229759
v 0.954753 1.075323 0.405052
v -0.844609 2.298723 0.229759
v -0.698910 2.770312 0.229759
v -0.698910 2.770312 0.405052
v -0.844609 2.298723 0.405052
v 1.094310 1.310753 0.229759
v 1.094310 1.310753 0.405052
v -0.609242 2.647527 0.229759
v -0.000000 2.996487 0.229759
v -0.000000 2.844684 0.229759
v -0.000000 2.996487 0.405052
v -0.000000 2.844684 0.405052
v -0.609242 2.647527 0.405052
v 1.093946 1.822927 0.229759
v 1.093946 1.822927 0.405052
v 0.698910 2.770312 0.229759
v 0.609242 2.647527 0.229759
v 0.968438 2.369900 0.229759
v 0.968438 2.369900 0.405052
v 0.609242 2.647527 0.405052
v 0.698910 2.770312 0.405052
v 0.955067 1.310754 0.229759
v 0.955067 1.310754 0.229759
v 0.955067 1.310754 0.405052
v 0.955067 1.310754 0.405052
v 0.954466 1.821688 0.229759
v 0.954466 1.821688 0.405052
v 0.844608 2.298723 0.229759
v 0.844608 2.298723 0.405052
v -0.807838 1.354143 0.235617
v -0.807543 1.083759 0.235617
v -0.807838 1.354143 0.399194
v -0.807543 1.082572 0.399194
v -0.807838 1.354143 0.235617
v -0.807277 1.830932 0.235617
v -0.807277 1.830932 0.399194
v -0.807838 1.354143 0.399194
v -0.704761 2.276086 0.235617
v -0.704761 2.276086 0.399194
v -0.485124 2.601579 0.235617
v -0.485124 2.601579 0.399194
v 0.800062 1.075764 0.235617
v 0.800357 1.354143 0.235617
v 0.800063 1.075273 0.399194
v 0.800357 1.354143 0.399194
v -0.000000 2.785561 0.235617
v -0.000000 2.785561 0.399194
v 0.800357 1.354143 0.235617
v 0.799796 1.830932 0.235617
v 0.800357 1.354143 0.399194
v 0.799796 1.830932 0.399194
v 0.697280 2.276086 0.235617
v 0.697280 2.276086 0.399194
v 0.477643 2.601579 0.235617
v 0.477643 2.601579 0.399194
vt 0.421875 0.291566
vt 0.364684 0.234375
vt 0.381902 0.223639
vt 0.382255 0.223993
vt 0.431816 0.273554
vt 0.520760 0.457933
vt 0.500000 0.457933
vt 0.500000 0.578416
vt 0.520760 0.578416
vt 0.364684 0.765625
vt 0.421875 0.708434
vt 0.431816 0.724856
vt 0.382255 0.774417
vt 0.381902 0.774771
vt 0.479167 0.312500
vt 0.500000 0.312500
vt 0.500000 0.688440
vt 0.479167 0.688440
vt 0.343750 0.156250
vt 0.363720 0.155630
vt 0.458333 0.312500
vt 0.458333 0.688440
vt 0.343750 0.843750
vt 0.363720 0.842776
vt 0.499892 0.457933
vt 0.479113 0.457933
vt 0.479113 0.578416
vt 0.499892 0.578416
vt 0.364684 0.078125
vt 0.381979 0.087491
vt 0.437500 0.312500
vt 0.437500 0.688440
vt 0.364684 0.921875
vt 0.381979 0.910908
vt 0.562500 0.312500
vt 0.583333 0.312500
vt 0.583333 0.688440
vt 0.562500 0.688440
vt 0.458280 0.457933
vt 0.458280 0.578416
vt 0.431854 0.037665
vt 0.421875 0.020934
vt 0.500000 0.000000
vt 0.500000 0.019403
vt 0.416667 0.312500
vt 0.416667 0.688440
vt 0.500000 0.978980
vt 0.500000 1.000000
vt 0.421875 0.979066
vt 0.431854 0.960723
vt 0.604167 0.312500
vt 0.604167 0.688440
vt 0.578125 0.020934
vt 0.568146 0.037665
vt 0.625000 0.312500
vt 0.625000 0.688440
vt 0.568146 0.960723
vt 0.578125 0.979066
vt 0.395833 0.312500
vt 0.395833 0.688440
vt 0.635316 0.234375
vt 0.578125 0.291566
vt 0.568184 0.273554
vt 0.617745 0.223993
vt 0.618098 0.223639
vt 0.375000 0.312500
vt 0.375000 0.688440
vt 0.578125 0.708434
vt 0.635316 0.765625
vt 0.618098 0.774771
vt 0.617745 0.774417
vt 0.568184 0.724856
vt 0.437475 0.457933
vt 0.437475 0.578416
vt 0.656250 0.156250
vt 0.636280 0.155630
vt 0.656250 0.843750
vt 0.636280 0.842776
vt 0.583333 0.457933
vt 0.562574 0.457933
vt 0.562574 0.578416
vt 0.583333 0.578416
vt 0.635316 0.078125
vt 0.618021 0.087491
vt 0.635316 0.921875
vt 0.618021 0.910908
vt 0.416667 0.457933
vt 0.416667 0.578416
vt 0.604221 0.457933
vt 0.583441 0.457933
vt 0.583441 0.578416
vt 0.604221 0.578416
vt 0.625000 0.457933
vt 0.625000 0.578416
vt 0.395859 0.457933
vt 0.395859 0.578416
vt 0.375053 0.457933
vt 0.375053 0.578416
vt 0.520833 0.312500
vt 0.520833 0.688440
vt 0.520760 0.457933
vt 0.520760 0.578416
vt 0.562574 0.578416
vt 0.562574 0.457933
vt 0.500000 0.457933
vt 0.500000 0.578416
vt 0.499892 0.457933
vt 0.479113 0.457933
vt 0.479113 0.578416
vt 0.499892 0.578416
vt 0.458280 0.457933
vt 0.458280 0.578416
vt 0.437475 0.457933
vt 0.437475 0.578416
vt 0.583333 0.457933
vt 0.583333 0.578416
vt 0.416667 0.457933
vt 0.416667 0.578416
vt 0.604221 0.457933
vt 0.583441 0.457933
vt 0.583441 0.578416
vt 0.604221 0.578416
vt 0.625000 0.457933
vt 0.625000 0.578416
vt 0.395859 0.457933
vt 0.395859 0.578416
vt 0.375053 0.457933
vt 0.375053 0.578416
vn 0.000000 0.000000 -1.000000
vn 0.000000 -0.000000 -1.000000
vn 0.000000 -0.000000 -1.000000
vn 0.000000 0.000000 -0.000000
vn 0.000000 0.000000 -1.000000
vn 0.999999 0.001086 0.000004
vn 0.999999 0.001086 0.000004
vn 0.999999 0.001086 0.000004
vn 0.999999 0.001086 0.000004
vn 0.000000 -0.000000 1.000000
vn 0.000000 0.000000 1.000000
vn 0.000000 0.000000 1.000000
vn 0.000000 0.000000 0.000000
vn 0.000000 -0.000000 1.000000
vn -1.000000 0.000710 0.000000
vn -1.000000 0.000710 0.000000
vn -1.000000 0.000710 0.000000
vn -1.000000 0.000710 0.000000
vn 0.000000 -0.000000 -1.000000
vn 0.000000 -0.000000 -1.000000
vn -0.974670 0.223647 0.000000
vn -0.974670 0.223647 0.000000
vn -0.974670 0.223647 0.000000
vn -0.974670 0.223647 0.000000
vn 0.000000 -0.000000 1.000000
vn 0.000000 -0.000000 1.000000
vn 0.000000 -0.000000 0.000000
vn 0.993808 -0.111112 0.000000
vn 0.993808 -0.111112 0.000000
vn 0.000000 -0.000000 0.000000
vn 0.000000 -0.000000 -1.000000
vn 0.000000 -0.000000 -1.000000
vn -0.829569 0.558405 0.000000
vn -0.829569 0.558405 0.000000
vn -0.829569 0.558405 0.000000
vn -0.829569 0.558405 0.000000
vn 0.000000 -0.000000 1.000000
vn 0.000000 -0.000000 1.000000
vn 0.999999 -0.001543 0.000000
vn 0.999999 -0.001543 0.000000
vn 0.999999 -0.001543 0.000000
vn 0.999999 -0.001543 0.000000
vn 0.922630 -0.385686 0.000000
vn 0.922630 -0.385686 0.000000
vn 0.000000 -0.000000 -1.000000
vn 0.000000 -0.000000 -1.000000
vn 0.000000 -0.000000 -1.000000
vn 0.000000 -0.000000 -1.000000
vn -0.307891 0.951422 0.000000
vn -0.307891 0.951422 0.000000
vn -0.307891 0.951422 0.000000
vn -0.307891 0.951422 0.000000
vn 0.000000 -0.000000 1.000000
vn 0.000000 -0.000000 1.000000
vn 0.000000 -0.000000 1.000000
vn 0.000000 -0.000000 1.000000
vn 1.000000 0.000710 0.000000
vn 1.000000 0.000710 0.000000
vn 1.000000 0.000710 0.000000
vn 1.000000 0.000710 0.000000
vn -0.000000 -0.000000 -1.000000
vn -0.000000 -0.000000 -1.000000
vn 0.974670 0.223647 0.000000
vn 0.974670 0.223647 0.000000
vn 0.974670 0.223647 0.000000
vn 0.974670 0.223647 0.000000
vn -0.000000 -0.000000 1.000000
vn -0.000000 -0.000000 1.000000
vn 0.307891 0.951422 0.000000
vn 0.307891 0.951422 0.000000
vn 0.307891 0.951422 0.000000
vn 0.307891 0.951422 0.000000
vn -0.000000 -0.000000 -1.000000
vn -0.000000 0.000000 -1.000000
vn -0.000000 0.000000 -1.000000
vn -0.000000 0.000000 -0.000000
vn -0.000000 -0.000000 -1.000000
vn 0.829569 0.558405 0.000000
vn 0.829569 0.558405 0.000000
vn 0.829569 0.558405 0.000000
vn 0.829569 0.558405 0.000000
vn -0.000001 0.000000 1.000000
vn -0.000000 -0.000000 1.000000
vn -0.000000 -0.000000 1.000000
vn -0.000000 0.000000 0.000000
vn -0.000001 0.000000 1.000000
vn 0.828933 -0.559348 0.000000
vn 0.828933 -0.559348 0.000000
vn -0.000000 -0.000000 -1.000000
vn -0.000000 -0.000000 -1.000000
vn -0.000000 -0.000000 1.000000
vn -0.000000 -0.000000 1.000000
vn -0.999999 0.001054 0.000005
vn -1.000000 0.001054 0.000005
vn -1.000000 0.001054 0.000005
vn -0.999999 0.001054 0.000005
vn -0.000000 -0.000000 -1.000000
vn -0.000000 -0.000000 -1.000000
vn -0.000000 -0.000000 1.000000
vn -0.000000 -0.000000 1.000000
vn 0.354602 -0.935017 0.000000
vn 0.354602 -0.935017 0.000000
vn 0.354602 -0.935017 0.000000
vn 0.354602 -0.935017 0.000000
vn -0.993808 -0.111112 0.000000
vn -0.000000 -0.000000 0.000000
vn -0.000000 -0.000000 0.000000
vn -0.993808 -0.111112 0.000000
vn -0.922630 -0.385686 0.000000
vn -0.922630 -0.385686 0.000000
vn -0.359443 -0.933167 0.000000
vn -0.359443 -0.933167 0.000000
vn -0.359443 -0.933167 0.000000
vn -0.359443 -0.933167 0.000000
vn -0.828933 -0.559348 0.000000
vn -0.828933 -0.559348 0.000000
vn -0.999999 -0.001595 0.000000
vn -0.999999 -0.001595 0.000000
vn -0.999999 -0.001595 0.000000
vn -0.999999 -0.001595 0.000000
vn 0.003889 -0.999986 -0.003628
vn 0.003889 -0.999986 -0.003628
vn 0.003889 -0.999986 -0.003628
vn 0.003889 -0.999986 -0.003628
vn -0.003255 -0.999994 -0.001502
vn -0.003255 -0.999994 -0.001502
vn -0.003255 -0.999994 -0.001502
vn -0.003255 -0.999994 -0.001502
vn 0.039748 0.000049 -0.999210
vn 0.039748 0.000049 -0.999210
vn 0.039748 0.000049 -0.999210
vn 0.039748 0.000049 -0.999210
vn 0.039748 0.000049 0.999210
vn 0.039748 0.000049 0.999210
vn 0.039748 0.000049 0.999210
vn 0.039748 0.000049 0.999210
vn -0.000920 -0.999973 -0.007255
vn -0.000920 -0.999973 -0.007255
vn -0.000920 -0.999973 -0.007255
vn -0.000920 -0.999973 -0.007255
vn 0.000000 0.000000 0.000000
vn 0.000000 0.000000 0.000000
vn 0.000000 0.000000 0.000000
vn 0.000000 0.000000 0.000000
vn 0.039766 -0.000047 -0.999209
vn 0.039766 -0.000047 -0.999209
vn 0.039766 -0.000047 -0.999209
vn 0.039766 -0.000047 -0.999209
vn 0.039766 -0.000047 0.999209
vn 0.039766 -0.000047 0.999209
vn 0.039766 -0.000047 0.999209
vn 0.039766 -0.000047 0.999209
vn 0.000000 0.000000 0.000000
vn 0.000000 0.000000 0.000000
vn 0.000000 0.000000 0.000000
vn 0.000000 0.000000 0.000000
vn 0.040344 -0.009291 -0.999143
vn 0.040344 -0.009291 -0.999143
vn 0.040344 -0.009291 -0.999143
vn 0.040344 -0.009291 -0.999143
vn 0.040344 -0.009291 0.999143
vn 0.040344 -0.009291 0.999143
vn 0.040344 -0.009291 0.999143
vn 0.040344 -0.009291 0.999143
vn 0.037720 -0.025453 -0.998964
vn 0.037720 -0.025453 -0.998964
vn 0.037720 -0.025453 -0.998964
vn 0.037720 -0.025453 -0.998964
vn 0.037720 -0.025453 0.998964
vn 0.037720 -0.025453 0.998964
vn 0.037720 -0.025453 0.998964
vn 0.037720 -0.025453 0.998964
vn -0.037829 0.000045 -0.999284
vn -0.037829 0.000045 -0.999284
vn -0.037829 0.000045 -0.999284
vn -0.037829 0.000045 -0.999284
vn 0.000441 -0.999995 -0.003004
vn 0.000441 -0.999995 -0.003004
vn 0.000441 -0.999995 -0.003004
vn 0.000441 -0.999995 -0.003004
vn -0.037829 0.000045 0.999284
vn -0.037829 0.000045 0.999284
vn -0.037829 0.000045 0.999284
vn -0.037829 0.000045 0.999284
vn 0.027416 -0.078720 -0.996520
vn 0.027416 -0.078720 -0.996520
vn 0.027416 -0.078720 -0.996520
vn 0.027416 -0.078720 -0.996520
vn 0.027416 -0.078720 0.996520
vn 0.027416 -0.078720 0.996520
vn 0.027416 -0.078720 0.996520
vn 0.027416 -0.078720 0.996520
vn -0.037845 -0.000045 -0.999284
vn -0.037845 -0.000045 -0.999284
vn -0.037845 -0.000045 -0.999284
vn -0.037845 -0.000045 -0.999284
vn 0.000000 0.000000 0.000000
vn 0.000000 0.000000 0.000000
vn 0.000000 0.000000 0.000000
vn 0.000000 0.000000 0.000000
vn 0.000000 0.000000 0.000000
vn 0.000000 0.000000 0.000000
vn 0.000000 0.000000 0.000000
vn 0.000000 0.000000 0.000000
vn -0.037845 -0.000045 0.999284
vn -0.037845 -0.000045 0.999284
vn -0.037845 -0.000045 0.999284
vn -0.037845 -0.000045 0.999284
vn -0.038369 -0.008836 -0.999225
vn -0.038369 -0.008836 -0.999225
vn -0.038369 -0.008836 -0.999225
vn -0.038369 -0.008836 -0.999225
vn -0.038369 -0.008836 0.999225
vn -0.038369 -0.008836 0.999225
vn -0.038369 -0.008836 0.999225
vn -0.038369 -0.008836 0.999225
vn -0.027075 -0.077209 -0.996647
vn -0.027075 -0.077209 -0.996647
vn -0.027075 -0.077209 -0.996647
vn -0.027075 -0.077209 -0.996647
vn -0.027075 -0.077209 0.996647
vn -0.027075 -0.077209 0.996647
vn -0.027075 -0.077209 0.996647
vn -0.027075 -0.077209 0.996647
vn -0.035988 -0.024284 -0.999057
vn -0.035988 -0.024284 -0.999057
vn -0.035988 -0.024284 -0.999057
vn -0.035988 -0.024284 -0.999057
vn -0.035988 -0.024284 0.999057
vn -0.035988 -0.024284 0.999057
vn -0.035988 -0.024284 0.999057
vn -0.035988 -0.024284 0.999057
s 1
g polySurface5 pCube151
usemtl initialShadingGroup
f 1/1/1 2/2/2 3/3/3 4/4/4 5/5/5
s 2
f 50/6/6 49/7/7 51/8/8 52/9/9
s 3
f 9/10/10 6/11/11 8/12/12 7/13/13 10/14/14
s off
f 11/15/15 2/16/16 9/17/17 12/18/18
s 1
f 2/2/2 11/19/19 13/20/20 3/3/3
s off
f 14/21/21 11/15/22 12/18/23 15/22/24
s 3
f 12/23/25 9/10/10 10/14/14 16/24/26
s 2
f 49/7/7 53/25/27 54/26/28 55/27/29 56/28/30 51/8/8
s 1
f 11/19/19 14/29/31 21/30/32 13/20/20
s off
f 22/31/33 14/21/34 15/22/35 23/32/36
s 3
f 15/33/37 12/23/25 16/24/26 24/34/38
s off
f 17/35/39 25/36/40 26/37/41 18/38/42
s 2
f 54/26/28 57/39/43 58/40/44 55/27/29
s 1
f 27/41/45 22/42/46 28/43/47 29/44/48
s off
f 28/45/49 22/31/50 23/32/51 30/46/52
s 3
f 31/47/53 30/48/54 23/49/55 32/50/56
s off
f 25/36/57 33/51/58 34/52/59 26/37/60
s 1
f 14/29/31 22/42/46 27/41/45 21/30/32
s 3
f 23/49/55 15/33/37 24/34/38 32/50/56
s 1
f 29/44/48 28/43/47 35/53/61 36/54/62
s off
f 33/51/63 37/55/64 38/56/65 34/52/66
s 3
f 39/57/67 40/58/68 30/48/54 31/47/53
s off
f 35/59/69 28/45/70 30/46/71 40/60/72
s 1
f 25/61/73 17/62/74 19/63/75 41/64/76 42/65/77
s off
f 37/66/78 35/59/79 40/60/80 38/67/81
s 3
f 18/68/82 26/69/83 43/70/84 44/71/85 20/72/86
s 2
f 57/39/43 59/73/87 60/74/88 58/40/44
s 1
f 33/75/89 25/61/73 42/65/77 45/76/90
s 3
f 26/69/83 34/77/91 46/78/92 43/70/84
s 7
f 62/79/93 61/80/94 63/81/95 64/82/96
s 1
f 37/83/97 33/75/89 45/76/90 47/84/98
s 3
f 34/77/91 38/85/99 48/86/100 46/78/92
s 1
f 35/53/61 37/83/97 47/84/98 36/54/62
s off
f 59/73/101 65/87/102 66/88/103 60/74/104
s 3
f 38/85/99 40/58/68 39/57/67 48/86/100
s 7
f 68/89/105 67/90/106 62/79/93 64/82/96 69/91/107 70/92/108
f 71/93/109 68/89/105 70/92/108 72/94/110
s off
f 65/87/111 73/95/112 74/96/113 66/88/114
s 7
f 73/95/115 71/97/109 72/98/110 74/96/116
s off
f 2/16/117 1/99/118 6/100/119 9/17/120
f 6/100/121 1/99/122 5/101/123 8/102/124
f 17/35/125 18/38/126 20/103/127 19/104/128
f 5/101/129 4/105/130 49/7/131 50/6/132
f 7/106/133 8/102/134 52/9/135 51/8/136
f 8/102/137 5/101/138 50/6/139 52/9/140
f 4/105/141 3/107/142 53/25/143 49/7/144
f 3/107/145 13/108/146 54/26/147 53/25/148
f 16/109/149 10/110/150 56/28/151 55/27/152
f 10/110/153 7/106/154 51/8/155 56/28/156
f 13/108/157 21/111/158 57/39/159 54/26/160
f 24/112/161 16/109/162 55/27/163 58/40/164
f 21/111/165 27/113/166 59/73/167 57/39/168
f 32/114/169 24/112/170 58/40/171 60/74/172
f 41/115/173 19/104/174 61/80/175 62/79/176
f 19/104/177 20/103/178 63/81/179 61/80/180
f 20/103/181 44/116/182 64/82/183 63/81/184
f 27/113/185 29/117/186 65/87/187 59/73/188
f 31/118/189 32/114/190 60/74/191 66/88/192
f 45/119/193 42/120/194 67/90/195 68/89/196
f 42/120/197 41/115/198 62/79/199 67/90/200
f 44/116/201 43/121/202 69/91/203 64/82/204
f 43/121/205 46/122/206 70/92/207 69/91/208
f 47/123/209 45/119/210 68/89/211 71/93/212
f 46/122/213 48/124/214 72/94/215 70/92/216
f 29/117/217 36/125/218 73/95/219 65/87/220
f 39/126/221 31/118/222 66/88/223 74/96/224
f 36/125/225 47/127/226 71/97/227 73/95/228
f 48/128/229 39/126/230 74/96/231 72/98/232
