# This file uses centimeters as units for non-parametric coordinates.

mtllib pressure plate.mtl
g default
v 0.977953 3.143519 0.980223
v 0.977953 3.143519 -0.980223
v 0.977955 3.094607 -1.130555
v 0.977955 3.094607 1.130555
v -0.901228 3.143519 0.980223
v -0.963198 3.143519 -0.980223
v -0.963199 3.094607 -1.130555
v -0.901229 3.094607 1.130555
v 0.980223 3.143519 -0.975521
v -0.980223 3.143519 -0.964757
v -1.130555 3.094607 -0.964759
v 1.130555 3.094607 -0.975522
v 0.980223 3.143519 0.916547
v -0.980223 3.143519 0.937257
v -1.130555 3.094607 0.937258
v 1.130555 3.094607 0.916548
v -0.815294 3.143519 -0.980223
v -0.815294 3.143519 0.980223
v 0.813784 3.143519 -0.980223
v 0.813784 3.143519 0.980223
v -0.980223 3.143519 -0.807885
v -0.815294 3.143519 -0.807885
v 0.813784 3.143519 -0.807885
v 0.980223 3.143519 -0.807885
v -0.980223 3.143519 0.814996
v -0.815294 3.143519 0.814996
v 0.813784 3.143519 0.814996
v 0.980223 3.143519 0.814996
v 0.738601 3.301242 -0.889663
v 0.738601 3.301242 -0.733247
v 0.889663 3.301242 -0.733247
v 0.889663 3.301242 -0.885396
v 0.887604 3.301242 -0.889663
v -0.889663 3.301242 -0.733248
v -0.739972 3.301242 -0.733248
v -0.739972 3.301242 -0.889663
v -0.874212 3.301242 -0.889663
v -0.889663 3.301242 -0.875627
v -0.889663 3.301242 0.739701
v -0.739972 3.301242 0.739701
v 0.738601 3.301242 0.739701
v 0.889663 3.301242 0.739701
v -0.817967 3.301242 0.889663
v -0.889663 3.301242 0.850667
v -0.739972 3.301242 0.889663
v 0.738601 3.301242 0.889663
v 0.887604 3.301242 0.889663
v 0.889663 3.301242 0.831870
v 1.130555 2.969087 -0.975522
v 1.130555 2.969087 0.916548
v 0.977955 2.969087 1.130555
v -0.901229 2.969087 1.130555
v -1.130555 2.969087 0.937258
v -1.130555 2.969087 -0.964759
v -0.963199 2.969087 -1.130555
v 0.977955 2.969087 -1.130555
vt 0.500000 0.250000
vt 0.500000 0.500000
vt 0.500000 0.750000
vt 0.500000 0.000000
vt 0.500000 1.000000
vt 0.437500 0.250000
vt 0.437500 0.500000
vt 0.437500 0.750000
vt 0.437500 0.000000
vt 0.437500 1.000000
vt 0.625000 0.375000
vt 0.750000 0.250000
vt 0.250000 0.250000
vt 0.375000 0.375000
vt 0.250000 0.000000
vt 0.375000 0.875000
vt 0.625000 0.875000
vt 0.750000 0.000000
vt 0.625000 0.312500
vt 0.687500 0.250000
vt 0.312500 0.250000
vt 0.375000 0.312500
vt 0.312500 0.000000
vt 0.375000 0.937500
vt 0.625000 0.937500
vt 0.687500 0.000000
vt 0.443158 0.500000
vt 0.441260 0.250000
vt 0.494008 0.500000
vt 0.492530 0.250000
vt 0.257511 0.250000
vt 0.375000 0.367489
vt 0.442917 0.468278
vt 0.493791 0.463366
vt 0.625000 0.365509
vt 0.740509 0.250000
vt 0.306461 0.250000
vt 0.375000 0.318539
vt 0.441477 0.278591
vt 0.492684 0.275979
vt 0.625000 0.317028
vt 0.692028 0.250000
vt 0.625000 0.365509
vt 0.625000 0.375000
vt 0.500000 0.500000
vt 0.494008 0.500000
vt 0.443158 0.500000
vt 0.437500 0.500000
vt 0.375000 0.375000
vt 0.375000 0.367489
vt 0.442917 0.468278
vt 0.493791 0.463366
vt 0.441477 0.278591
vt 0.375000 0.318539
vt 0.492684 0.275979
vt 0.625000 0.317028
vt 0.375000 0.312500
vt 0.437500 0.250000
vt 0.441260 0.250000
vt 0.492530 0.250000
vt 0.500000 0.250000
vt 0.625000 0.312500
vt 0.625000 0.875000
vt 0.625000 0.937500
vt 0.500000 1.000000
vt 0.437500 1.000000
vt 0.375000 0.937500
vt 0.375000 0.875000
vt 0.437500 0.750000
vt 0.500000 0.750000
vn 0.000000 1.000000 -0.000000
vn 0.000000 1.000000 -0.000000
vn 0.000000 1.000000 0.000000
vn 0.000000 1.000000 0.000000
vn 0.000000 1.000000 0.000000
vn -0.019469 0.949877 0.312018
vn -0.306466 0.951509 0.026641
vn -0.307154 0.951438 0.020560
vn -0.016265 0.950076 0.311594
vn 0.309528 0.950829 -0.010764
vn 0.010810 0.950927 -0.309226
vn 0.014021 0.950904 -0.309169
vn 0.309552 0.950794 -0.013008
vn 0.000000 -1.000000 0.000000
vn 0.000000 -1.000000 0.000000
vn 0.000000 -1.000000 0.000000
vn 0.000000 -1.000000 0.000000
vn 0.000000 -1.000000 0.000000
vn 0.000000 -1.000000 0.000000
vn 0.000000 -1.000000 0.000000
vn 0.000000 -1.000000 0.000000
vn 0.313680 0.949453 0.012027
vn 0.025095 0.952254 0.304273
vn 0.018794 0.951982 0.305578
vn 0.313261 0.949605 0.010846
vn -0.012217 0.950832 -0.309465
vn -0.015283 0.950785 -0.309476
vn 0.000000 0.950934 -0.309393
vn 0.000000 0.950934 -0.309393
vn 0.000000 0.950934 0.309393
vn 0.000000 0.950934 0.309393
vn -0.309271 0.950890 -0.012658
vn -0.309231 0.950852 -0.016008
vn -0.309393 0.950934 0.000000
vn -0.309393 0.950934 0.000000
vn 0.309393 0.950934 0.000000
vn 0.309393 0.950934 0.000000
vn 0.000000 1.000000 -0.000000
vn 0.000000 1.000000 -0.000000
vn 0.000000 1.000000 -0.000000
vn 0.000000 1.000000 -0.000000
vn 0.000000 1.000000 -0.000000
vn 0.000000 1.000000 0.000000
vn 0.000000 1.000000 0.000000
vn 0.000000 1.000000 -0.000000
vn 0.000000 1.000000 -0.000000
vn 0.000000 1.000000 -0.000000
vn 0.000000 1.000000 -0.000000
vn 0.000000 1.000000 0.000000
vn 0.000000 1.000000 0.000000
vn 0.000000 1.000000 0.000000
vn 0.000000 1.000000 0.000000
vn 0.000000 1.000000 0.000000
vn 0.000000 1.000000 0.000000
vn 0.000000 1.000000 0.000000
vn 0.000000 1.000000 0.000000
vn 0.867219 0.497928 0.000000
vn 0.867219 0.497928 0.000000
vn 0.867219 0.497928 0.000000
vn 0.867219 0.497928 0.000000
vn 0.715142 0.607823 -0.345142
vn 0.715142 0.607823 -0.345142
vn 0.715142 0.607823 -0.345142
vn 0.715142 0.607823 -0.345142
vn 0.000000 0.497928 -0.867219
vn 0.000000 0.497928 -0.867219
vn 0.000000 0.497928 -0.867219
vn 0.000000 0.497928 -0.867218
vn -0.000001 0.497928 -0.867219
vn -0.000001 0.497928 -0.867219
vn -0.000001 0.497928 -0.867219
vn -0.000001 0.497928 -0.867219
vn -0.523939 0.626760 -0.576767
vn -0.523939 0.626760 -0.576767
vn -0.523939 0.626760 -0.576767
vn -0.523939 0.626760 -0.576767
vn -0.867218 0.497928 0.000000
vn -0.867218 0.497928 0.000000
vn -0.867218 0.497928 0.000000
vn -0.867218 0.497928 0.000000
vn -0.000000 -0.427743 0.903900
vn -0.000000 -0.427743 0.903900
vn -0.000000 -0.427743 0.903900
vn -0.000000 -0.427743 0.903900
vn 0.000000 0.497928 -0.867219
vn 0.000000 0.497928 -0.867219
vn 0.000000 0.497928 -0.867219
vn 0.000000 0.497928 -0.867219
vn 0.902381 -0.430940 0.000000
vn 0.902381 -0.430940 0.000000
vn 0.902381 -0.430940 0.000000
vn 0.902381 -0.430940 0.000000
vn -0.867219 0.497927 0.000000
vn -0.867219 0.497927 0.000000
vn -0.867219 0.497927 0.000000
vn -0.867219 0.497927 0.000000
vn -0.902691 -0.430290 -0.000000
vn -0.902691 -0.430290 -0.000000
vn -0.902690 -0.430290 -0.000000
vn -0.902691 -0.430290 -0.000000
vn 0.867218 0.497928 0.000000
vn 0.867218 0.497928 0.000000
vn 0.867218 0.497928 0.000000
vn 0.867218 0.497928 0.000000
vn -0.381030 0.603372 0.700542
vn -0.381030 0.603372 0.700542
vn -0.381030 0.603372 0.700542
vn -0.381030 0.603372 0.700542
vn -0.000001 0.497928 0.867219
vn -0.000001 0.497928 0.867218
vn -0.000001 0.497928 0.867218
vn -0.000001 0.497928 0.867218
vn -0.867219 0.497927 0.000000
vn -0.867219 0.497927 0.000000
vn -0.867219 0.497927 0.000000
vn -0.867219 0.497927 0.000000
vn 0.000000 -0.430812 -0.902442
vn 0.000000 -0.430812 -0.902442
vn 0.000000 -0.430812 -0.902442
vn 0.000000 -0.430812 -0.902442
vn 0.000000 0.497928 0.867219
vn 0.000000 0.497928 0.867219
vn 0.000000 0.497928 0.867219
vn 0.000000 0.497928 0.867219
vn 0.000000 0.497928 0.867218
vn 0.000000 0.497928 0.867219
vn 0.000000 0.497928 0.867218
vn 0.000000 0.497928 0.867218
vn 0.859621 0.510013 0.030634
vn 0.859621 0.510013 0.030634
vn 0.859621 0.510013 0.030634
vn 0.859621 0.510013 0.030634
vn 0.867219 0.497927 0.000000
vn 0.867219 0.497927 0.000000
vn 0.867219 0.497927 0.000000
vn 0.867219 0.497927 0.000000
vn 1.000000 0.000000 0.000000
vn 1.000000 0.000000 0.000000
vn 1.000000 0.000000 0.000000
vn 1.000000 0.000000 0.000000
vn 0.814204 0.000000 0.580579
vn 0.814204 0.000000 0.580579
vn 0.814204 0.000000 0.580579
vn 0.814204 0.000000 0.580579
vn 0.000000 0.000000 1.000000
vn 0.000000 0.000000 1.000000
vn 0.000000 0.000000 1.000000
vn 0.000000 0.000000 1.000000
vn -0.644488 0.000000 0.764614
vn -0.644488 0.000000 0.764614
vn -0.644488 0.000000 0.764614
vn -0.644488 0.000000 0.764614
vn -1.000000 0.000000 0.000000
vn -1.000000 0.000000 0.000000
vn -1.000000 0.000000 0.000000
vn -1.000000 0.000000 0.000000
vn -0.703789 0.000000 -0.710409
vn -0.703789 0.000000 -0.710409
vn -0.703789 0.000000 -0.710409
vn -0.703789 0.000000 -0.710409
vn 0.000000 0.000000 -1.000000
vn 0.000000 0.000000 -1.000000
vn 0.000000 0.000000 -1.000000
vn 0.000000 0.000000 -1.000000
vn 0.712676 0.000000 -0.701494
vn 0.712676 0.000000 -0.701494
vn 0.712676 0.000000 -0.701494
vn 0.712676 0.000000 -0.701494
s 1
g pCube1
usemtl initialShadingGroup
f 29/46/1 30/52/2 31/43/3 32/44/4 33/45/5
s 2
f 5/6/6 14/21/7 15/23/8 8/9/9
f 12/18/10 3/3/11 2/2/12 9/12/13
s off
f 49/63/14 50/64/15 51/65/16 52/66/17 53/67/18 54/68/19 55/69/20 56/70/21
s 2
f 13/20/22 1/1/23 4/4/24 16/26/25
f 7/8/26 6/7/27 17/27/28 19/29/29 2/2/12 3/3/11
f 5/6/6 8/9/9 4/4/24 1/1/23 20/30/30 18/28/31
f 7/8/26 11/15/32 10/13/33 6/7/27
f 11/15/32 15/23/8 14/21/7 25/37/34 21/31/35 10/13/33
f 13/20/22 16/26/25 12/18/10 9/12/13 24/36/36 28/42/37
s 1
f 34/50/38 35/51/39 36/47/40 37/48/41 38/49/42
f 36/47/40 35/51/39 30/52/2 29/46/1
f 39/54/43 40/53/44 35/51/39 34/50/38
s off
f 23/34/45 22/33/46 26/39/47 27/40/48
s 1
f 31/43/3 30/52/2 41/55/49 42/56/50
f 44/57/51 43/58/52 45/59/53 40/53/44 39/54/43
f 41/55/49 40/53/44 45/59/53 46/60/54
f 42/56/50 41/55/49 46/60/54 47/61/55 48/62/56
s off
f 24/35/57 9/11/58 32/44/59 31/43/60
f 9/11/61 2/2/62 33/45/63 32/44/64
f 2/2/65 19/29/66 29/46/67 33/45/68
f 17/27/69 6/7/70 37/48/71 36/47/72
f 6/7/73 10/14/74 38/49/75 37/48/76
f 10/14/77 21/32/78 34/50/79 38/49/80
f 22/33/81 23/34/82 30/52/83 35/51/84
f 19/29/85 17/27/86 36/47/87 29/46/88
f 26/39/89 22/33/90 35/51/91 40/53/92
f 21/32/93 25/38/94 39/54/95 34/50/96
f 23/34/97 27/40/98 41/55/99 30/52/100
f 28/41/101 24/35/102 31/43/103 42/56/104
f 14/22/105 5/6/106 43/58/107 44/57/108
f 5/6/109 18/28/110 45/59/111 43/58/112
f 25/38/113 14/22/114 44/57/115 39/54/116
f 27/40/117 26/39/118 40/53/119 41/55/120
f 18/28/121 20/30/122 46/60/123 45/59/124
f 20/30/125 1/1/126 47/61/127 46/60/128
f 1/1/129 13/19/130 48/62/131 47/61/132
f 13/19/133 28/41/134 42/56/135 48/62/136
f 12/17/137 16/25/138 50/64/139 49/63/140
f 16/25/141 4/5/142 51/65/143 50/64/144
f 4/5/145 8/10/146 52/66/147 51/65/148
f 8/10/149 15/24/150 53/67/151 52/66/152
f 15/24/153 11/16/154 54/68/155 53/67/156
f 11/16/157 7/8/158 55/69/159 54/68/160
f 7/8/161 3/3/162 56/70/163 55/69/164
f 3/3/165 12/17/166 49/63/167 56/70/168
g default
v -0.677386 3.250087 0.677386
v 0.677386 3.250087 0.677386
v -0.598948 3.434835 0.598948
v 0.598948 3.434835 0.598948
v -0.598948 3.434835 -0.598948
v 0.598948 3.434835 -0.598948
v -0.677386 3.250087 -0.677386
v 0.677386 3.250087 -0.677386
vt 0.375000 0.000000
vt 0.625000 0.000000
vt 0.375000 0.250000
vt 0.625000 0.250000
vt 0.375000 0.500000
vt 0.625000 0.500000
vt 0.375000 0.750000
vt 0.625000 0.750000
vt 0.375000 1.000000
vt 0.625000 1.000000
vt 0.875000 0.000000
vt 0.875000 0.250000
vt 0.125000 0.000000
vt 0.125000 0.250000
vn 0.000000 0.390801 0.920475
vn 0.000000 0.390801 0.920475
vn 0.000000 0.390801 0.920475
vn 0.000000 0.390801 0.920475
vn 0.000000 1.000000 0.000000
vn 0.000000 1.000000 0.000000
vn 0.000000 1.000000 0.000000
vn 0.000000 1.000000 0.000000
vn 0.000000 0.390801 -0.920475
vn 0.000000 0.390801 -0.920475
vn 0.000000 0.390801 -0.920475
vn 0.000000 0.390801 -0.920475
vn 0.000000 -1.000000 0.000000
vn 0.000000 -1.000000 0.000000
vn 0.000000 -1.000000 0.000000
vn 0.000000 -1.000000 0.000000
vn 0.920475 0.390801 0.000000
vn 0.920475 0.390801 0.000000
vn 0.920475 0.390801 0.000000
vn 0.920475 0.390801 0.000000
vn -0.920475 0.390801 0.000000
vn -0.920475 0.390801 0.000000
vn -0.920475 0.390801 0.000000
vn -0.920475 0.390801 0.000000
s off
g pCube2
usemtl initialShadingGroup
f 57/71/169 58/72/170 60/74/171 59/73/172
f 59/73/173 60/74/174 62/76/175 61/75/176
f 61/75/177 62/76/178 64/78/179 63/77/180
f 63/77/181 64/78/182 58/80/183 57/79/184
f 58/72/185 64/81/186 62/82/187 60/74/188
f 63/83/189 57/71/190 59/73/191 61/84/192
